<svg class="site-logo" xmlns="http://www.w3.org/2000/svg" width="698.27" height="190.16" preserveAspectRatio="xMidYMid" version="1.0" viewBox="0 0 523.7 142.62"><title>AI master guides</title><defs><clipPath id="a"><path d="M151.73 340.52h116.58V457.1H151.73z"/></clipPath><clipPath id="b"><path d="m210.02 340.52 18.547 39.742 39.742 18.547-39.742 18.551-18.547 39.738-18.551-39.738-39.738-18.551 39.738-18.547z"/></clipPath></defs><g clip-path="url(#a)" transform="translate(-151.73 -331.19)"><g clip-path="url(#b)"><path fill="#2663ea" d="M151.73 340.52h116.58V457.1H151.73z"/></g></g><path d="M176.653 43.859h-25.918L145.79 55.82h-13.238L157.435 0h12.758l24.96 55.82h-13.558zm-4.066-9.809-8.852-21.375-8.855 21.375zM200.967 0h12.922v55.82h-12.922zM291.808 12.277c5.367 0 9.637 1.582 12.797 4.746 3.164 3.164 4.746 7.91 4.746 14.234V55.82h-12.44V33.171c0-3.402-.704-5.941-2.114-7.613-1.406-1.676-3.414-2.516-6.02-2.516-2.925 0-5.238.946-6.937 2.832-1.703 1.887-2.551 4.692-2.551 8.414V55.82h-12.441V33.171c0-6.75-2.71-10.129-8.133-10.129-2.87 0-5.16.946-6.86 2.832-1.702 1.887-2.55 4.692-2.55 8.414V55.82h-12.441V12.917h11.883v4.942c1.594-1.805 3.547-3.188 5.86-4.145s4.851-1.437 7.617-1.437c3.03 0 5.77.601 8.214 1.797a14.536 14.536 0 0 1 5.899 5.222c1.754-2.234 3.976-3.96 6.66-5.183 2.684-1.223 5.621-1.836 8.813-1.836zM337.817 12.277c6.644 0 11.75 1.582 15.312 4.746 3.559 3.164 5.34 7.934 5.34 14.316v24.48h-11.641v-5.344c-2.34 3.989-6.7 5.98-13.078 5.98-3.297 0-6.156-.558-8.574-1.671-2.418-1.117-4.266-2.66-5.543-4.625-1.274-1.969-1.914-4.203-1.914-6.7 0-3.988 1.503-7.124 4.507-9.41 3.004-2.289 7.64-3.43 13.914-3.43h9.89c0-2.71-.823-4.796-2.472-6.26-1.648-1.462-4.12-2.192-7.418-2.192-2.285 0-4.531.36-6.738 1.074-2.207.719-4.078 1.691-5.621 2.914l-4.465-8.695c2.336-1.649 5.14-2.922 8.41-3.828a37.753 37.753 0 0 1 10.09-1.356zm-.957 35.809c2.125 0 4.016-.492 5.66-1.477 1.649-.984 2.82-2.433 3.512-4.347v-4.383h-8.535c-5.102 0-7.657 1.672-7.657 5.023 0 1.594.625 2.856 1.875 3.785 1.25.934 2.965 1.399 5.145 1.399zM384.146 56.457a41.58 41.58 0 0 1-10.445-1.317c-3.402-.875-6.117-1.976-8.137-3.308l4.149-8.93c1.914 1.223 4.226 2.219 6.937 2.988 2.711.774 5.371 1.157 7.973 1.157 5.265 0 7.898-1.301 7.898-3.907 0-1.222-.718-2.101-2.156-2.632-1.434-.532-3.64-.981-6.617-1.356-3.508-.531-6.406-1.14-8.692-1.832-2.289-.691-4.269-1.914-5.94-3.668-1.677-1.754-2.513-4.254-2.513-7.496 0-2.711.782-5.117 2.352-7.219 1.566-2.101 3.855-3.734 6.86-4.902 3.003-1.172 6.55-1.758 10.644-1.758 3.032 0 6.047.332 9.051 1 3.004.664 5.488 1.582 7.457 2.75l-4.148 8.852c-3.774-2.125-7.895-3.192-12.36-3.192-2.655 0-4.652.375-5.98 1.117-1.328.747-1.992 1.704-1.992 2.872 0 1.328.715 2.261 2.152 2.793 1.434.53 3.72 1.035 6.856 1.515 3.512.582 6.383 1.207 8.613 1.871 2.235.664 4.176 1.875 5.824 3.63 1.645 1.753 2.47 4.198 2.47 7.335 0 2.66-.798 5.027-2.391 7.098-1.594 2.074-3.922 3.683-6.977 4.824-3.059 1.144-6.688 1.715-10.887 1.715zM439.734 53.746c-1.223.906-2.727 1.582-4.508 2.035-1.781.45-3.652.676-5.62.676-5.103 0-9.052-1.301-11.84-3.906-2.794-2.606-4.188-6.434-4.188-11.484V23.446h-6.622v-9.57h6.622V3.425h12.438v10.45h10.688v9.57h-10.688v17.46c0 1.81.468 3.204 1.398 4.188.93.984 2.246 1.477 3.945 1.477 1.97 0 3.645-.532 5.024-1.594zM488.77 34.527c0 .16-.082 1.277-.242 3.352H456.07c.586 2.656 1.969 4.757 4.148 6.296 2.18 1.543 4.89 2.313 8.133 2.313 2.234 0 4.215-.332 5.941-.996 1.73-.664 3.336-1.715 4.825-3.148l6.62 7.175c-4.042 4.625-9.94 6.938-17.702 6.938-4.84 0-9.117-.942-12.84-2.828-3.723-1.89-6.594-4.508-8.614-7.856-2.02-3.351-3.03-7.152-3.03-11.406 0-4.199.995-7.988 2.991-11.363 1.993-3.375 4.73-6.008 8.215-7.894 3.48-1.887 7.375-2.832 11.68-2.832 4.203 0 8.004.906 11.406 2.715 3.403 1.804 6.074 4.398 8.012 7.773 1.941 3.375 2.914 7.297 2.914 11.762zm-22.25-12.84c-2.82 0-5.184.8-7.098 2.394s-3.086 3.774-3.508 6.54h21.134c-.426-2.711-1.598-4.88-3.512-6.5-1.914-1.622-4.25-2.434-7.016-2.434zM508.945 18.578c1.488-2.074 3.496-3.64 6.02-4.703 2.527-1.063 5.437-1.598 8.73-1.598v11.484c-1.379-.105-2.313-.16-2.79-.16-3.562 0-6.35 1-8.374 2.992-2.02 1.992-3.027 4.985-3.027 8.973V55.82h-12.441V12.918h11.883zM176.01 83.608v35.727c0 7.867-2.047 13.715-6.14 17.543-4.094 3.828-10.075 5.742-17.942 5.742-4.148 0-8.082-.504-11.805-1.515-3.718-1.012-6.804-2.473-9.25-4.387l4.946-8.93c1.808 1.488 4.094 2.672 6.86 3.547 2.76.879 5.526 1.316 8.292 1.316 4.305 0 7.48-.968 9.527-2.91 2.047-1.941 3.07-4.879 3.07-8.812v-1.836c-3.242 3.562-7.761 5.344-13.554 5.344-3.934 0-7.536-.864-10.805-2.59-3.27-1.73-5.864-4.16-7.778-7.297-1.914-3.137-2.87-6.754-2.87-10.848s.956-7.707 2.87-10.844c1.914-3.137 4.508-5.57 7.778-7.297 3.27-1.727 6.87-2.594 10.805-2.594 6.218 0 10.953 2.047 14.195 6.14v-5.5zm-23.523 30.621c3.297 0 5.992-.969 8.094-2.91 2.098-1.942 3.148-4.48 3.148-7.617 0-3.137-1.05-5.676-3.148-7.614-2.102-1.941-4.797-2.91-8.094-2.91-3.297 0-6.008.969-8.137 2.91-2.125 1.938-3.187 4.477-3.187 7.614 0 3.136 1.062 5.675 3.187 7.617 2.13 1.941 4.84 2.91 8.137 2.91zM230.795 83.608v42.902H218.99v-5.106a16.487 16.487 0 0 1-5.898 4.27c-2.29.98-4.758 1.473-7.418 1.473-5.637 0-10.102-1.621-13.398-4.864-3.293-3.242-4.942-8.054-4.942-14.434V83.607h12.438v22.406c0 6.914 2.899 10.367 8.696 10.367 2.976 0 5.367-.968 7.175-2.91 1.809-1.941 2.711-4.824 2.711-8.652V83.607zM242.352 83.608h12.441v42.902h-12.44zm6.219-5.98c-2.285 0-4.145-.668-5.582-1.997-1.434-1.328-2.152-2.976-2.152-4.941 0-1.969.718-3.617 2.152-4.945 1.437-1.328 3.297-1.996 5.582-1.996 2.285 0 4.148.64 5.582 1.914 1.437 1.277 2.152 2.87 2.152 4.785 0 2.074-.715 3.789-2.152 5.144-1.434 1.356-3.297 2.036-5.582 2.036zM310.061 67.338v59.172h-11.883v-4.945c-3.082 3.722-7.547 5.582-13.395 5.582-4.043 0-7.695-.903-10.965-2.711-3.27-1.809-5.836-4.387-7.695-7.735-1.864-3.347-2.793-7.23-2.793-11.645 0-4.41.93-8.293 2.793-11.64 1.86-3.352 4.426-5.93 7.695-7.735 3.27-1.809 6.922-2.715 10.965-2.715 5.477 0 9.754 1.73 12.84 5.184V67.338zm-23.125 49.602c3.137 0 5.742-1.074 7.816-3.23 2.07-2.153 3.11-5.036 3.11-8.653 0-3.613-1.04-6.496-3.11-8.652-2.074-2.152-4.68-3.227-7.816-3.227-3.191 0-5.82 1.074-7.894 3.227-2.075 2.156-3.11 5.039-3.11 8.652 0 3.617 1.035 6.5 3.11 8.652 2.074 2.157 4.703 3.231 7.894 3.231zM363.57 105.217c0 .16-.082 1.277-.242 3.352H330.87c.586 2.656 1.969 4.757 4.148 6.296 2.18 1.543 4.89 2.313 8.133 2.313 2.234 0 4.215-.332 5.941-.996 1.73-.664 3.336-1.715 4.825-3.148l6.62 7.175c-4.042 4.625-9.94 6.938-17.702 6.938-4.84 0-9.117-.942-12.84-2.828-3.723-1.89-6.594-4.508-8.614-7.856-2.02-3.351-3.03-7.152-3.03-11.406 0-4.199.995-7.988 2.991-11.363 1.993-3.375 4.73-6.008 8.215-7.894 3.48-1.887 7.375-2.832 11.68-2.832 4.203 0 8.004.906 11.406 2.715 3.403 1.804 6.074 4.398 8.012 7.773 1.941 3.375 2.914 7.297 2.914 11.762zm-22.25-12.84c-2.82 0-5.184.8-7.098 2.394s-3.086 3.774-3.508 6.54h21.133c-.425-2.711-1.597-4.88-3.511-6.5-1.914-1.622-4.25-2.434-7.016-2.434zM386.296 127.147a41.58 41.58 0 0 1-10.445-1.317c-3.402-.875-6.117-1.976-8.137-3.308l4.149-8.93c1.914 1.223 4.226 2.219 6.937 2.988 2.711.774 5.371 1.157 7.973 1.157 5.265 0 7.898-1.301 7.898-3.907 0-1.222-.718-2.101-2.156-2.632-1.434-.532-3.64-.981-6.617-1.356-3.508-.531-6.406-1.14-8.692-1.832-2.289-.691-4.269-1.914-5.94-3.668-1.677-1.754-2.513-4.254-2.513-7.496 0-2.711.782-5.117 2.352-7.219 1.566-2.101 3.855-3.734 6.86-4.902 3.003-1.172 6.55-1.758 10.644-1.758 3.032 0 6.047.332 9.051 1 3.004.664 5.488 1.582 7.457 2.75l-4.148 8.852c-3.774-2.125-7.895-3.192-12.36-3.192-2.655 0-4.652.375-5.98 1.117-1.328.747-1.992 1.704-1.992 2.872 0 1.328.715 2.261 2.152 2.793 1.434.53 3.72 1.035 6.856 1.515 3.512.582 6.383 1.207 8.613 1.871 2.235.664 4.176 1.875 5.824 3.63 1.645 1.753 2.47 4.198 2.47 7.335 0 2.66-.798 5.027-2.391 7.098-1.594 2.074-3.922 3.683-6.977 4.824-3.059 1.144-6.688 1.715-10.887 1.715z"/></svg>