<svg xmlns="http://www.w3.org/2000/svg" xmlns:xlink="http://www.w3.org/1999/xlink" width="1080" zoomAndPan="magnify" viewBox="0 0 810 809.999993" height="1080" preserveAspectRatio="xMidYMid meet" version="1.0"><defs><g/><clipPath id="d18c6d474e"><path d="M 151.726562 340.523438 L 268.304688 340.523438 L 268.304688 457.101562 L 151.726562 457.101562 Z M 151.726562 340.523438 " clip-rule="nonzero"/></clipPath><clipPath id="1bdc8900a4"><path d="M 210.015625 340.523438 L 228.5625 380.265625 L 268.304688 398.8125 L 228.5625 417.363281 L 210.015625 457.101562 L 191.464844 417.363281 L 151.726562 398.8125 L 191.464844 380.265625 Z M 210.015625 340.523438 " clip-rule="nonzero"/></clipPath></defs><g clip-path="url(#d18c6d474e)"><g clip-path="url(#1bdc8900a4)"><path fill="#2663ea" d="M 151.726562 340.523438 L 268.304688 340.523438 L 268.304688 457.101562 L 151.726562 457.101562 Z M 151.726562 340.523438 " fill-opacity="1" fill-rule="nonzero"/></g></g><g fill="#000000" fill-opacity="1"><g transform="translate(285.00075, 387.010515)"><g><path d="M 43.382812 -11.960938 L 17.464844 -11.960938 L 12.519531 0 L -0.71875 0 L 24.164062 -55.820312 L 36.921875 -55.820312 L 61.882812 0 L 48.324219 0 Z M 39.316406 -21.769531 L 30.464844 -43.144531 L 21.609375 -21.769531 Z M 39.316406 -21.769531 "/></g></g></g><g fill="#000000" fill-opacity="1"><g transform="translate(346.084889, 387.010515)"><g><path d="M 6.617188 -55.820312 L 19.539062 -55.820312 L 19.539062 0 L 6.617188 0 Z M 6.617188 -55.820312 "/></g></g></g><g fill="#000000" fill-opacity="1"><g transform="translate(382.847444, 387.010515)"><g><path d="M 60.6875 -43.542969 C 66.054688 -43.542969 70.324219 -41.960938 73.484375 -38.796875 C 76.648438 -35.632812 78.230469 -30.886719 78.230469 -24.5625 L 78.230469 0 L 65.789062 0 L 65.789062 -22.648438 C 65.789062 -26.050781 65.085938 -28.589844 63.675781 -30.261719 C 62.269531 -31.9375 60.261719 -32.777344 57.65625 -32.777344 C 54.730469 -32.777344 52.417969 -31.832031 50.71875 -29.945312 C 49.015625 -28.058594 48.167969 -25.253906 48.167969 -21.53125 L 48.167969 0 L 35.726562 0 L 35.726562 -22.648438 C 35.726562 -29.398438 33.015625 -32.777344 27.59375 -32.777344 C 24.722656 -32.777344 22.433594 -31.832031 20.734375 -29.945312 C 19.03125 -28.058594 18.183594 -25.253906 18.183594 -21.53125 L 18.183594 0 L 5.742188 0 L 5.742188 -42.902344 L 17.625 -42.902344 L 17.625 -37.960938 C 19.21875 -39.765625 21.171875 -41.148438 23.484375 -42.105469 C 25.796875 -43.0625 28.335938 -43.542969 31.101562 -43.542969 C 34.132812 -43.542969 36.871094 -42.941406 39.316406 -41.746094 C 41.761719 -40.550781 43.726562 -38.808594 45.214844 -36.523438 C 46.96875 -38.757812 49.191406 -40.484375 51.875 -41.707031 C 54.558594 -42.929688 57.496094 -43.542969 60.6875 -43.542969 Z M 60.6875 -43.542969 "/></g></g></g><g fill="#000000" fill-opacity="1"><g transform="translate(466.499231, 387.010515)"><g><path d="M 23.046875 -43.542969 C 29.691406 -43.542969 34.796875 -41.960938 38.359375 -38.796875 C 41.917969 -35.632812 43.699219 -30.863281 43.699219 -24.480469 L 43.699219 0 L 32.058594 0 L 32.058594 -5.34375 C 29.71875 -1.355469 25.359375 0.636719 18.980469 0.636719 C 15.683594 0.636719 12.824219 0.078125 10.40625 -1.035156 C 7.988281 -2.152344 6.140625 -3.695312 4.863281 -5.660156 C 3.589844 -7.628906 2.949219 -9.863281 2.949219 -12.359375 C 2.949219 -16.347656 4.453125 -19.484375 7.457031 -21.769531 C 10.460938 -24.058594 15.097656 -25.199219 21.371094 -25.199219 L 31.261719 -25.199219 C 31.261719 -27.910156 30.4375 -29.996094 28.789062 -31.460938 C 27.140625 -32.921875 24.667969 -33.652344 21.371094 -33.652344 C 19.085938 -33.652344 16.839844 -33.292969 14.632812 -32.578125 C 12.425781 -31.859375 10.554688 -30.886719 9.011719 -29.664062 L 4.546875 -38.359375 C 6.882812 -40.007812 9.6875 -41.28125 12.957031 -42.1875 C 16.226562 -43.089844 19.589844 -43.542969 23.046875 -43.542969 Z M 22.089844 -7.734375 C 24.214844 -7.734375 26.105469 -8.226562 27.75 -9.210938 C 29.398438 -10.195312 30.570312 -11.644531 31.261719 -13.558594 L 31.261719 -17.941406 L 22.726562 -17.941406 C 17.625 -17.941406 15.070312 -16.269531 15.070312 -12.917969 C 15.070312 -11.324219 15.695312 -10.0625 16.945312 -9.132812 C 18.195312 -8.199219 19.910156 -7.734375 22.089844 -7.734375 Z M 22.089844 -7.734375 "/></g></g></g><g fill="#000000" fill-opacity="1"><g transform="translate(515.701469, 387.010515)"><g><path d="M 20.175781 0.636719 C 16.613281 0.636719 13.132812 0.199219 9.730469 -0.679688 C 6.328125 -1.554688 3.613281 -2.65625 1.59375 -3.988281 L 5.742188 -12.917969 C 7.65625 -11.695312 9.96875 -10.699219 12.679688 -9.929688 C 15.390625 -9.15625 18.050781 -8.773438 20.652344 -8.773438 C 25.917969 -8.773438 28.550781 -10.074219 28.550781 -12.679688 C 28.550781 -13.902344 27.832031 -14.78125 26.394531 -15.3125 C 24.960938 -15.84375 22.753906 -16.292969 19.777344 -16.667969 C 16.269531 -17.199219 13.371094 -17.808594 11.085938 -18.5 C 8.796875 -19.191406 6.816406 -20.414062 5.144531 -22.167969 C 3.46875 -23.921875 2.632812 -26.421875 2.632812 -29.664062 C 2.632812 -32.375 3.414062 -34.78125 4.984375 -36.882812 C 6.550781 -38.984375 8.839844 -40.617188 11.84375 -41.785156 C 14.847656 -42.957031 18.394531 -43.542969 22.488281 -43.542969 C 25.519531 -43.542969 28.535156 -43.210938 31.539062 -42.542969 C 34.542969 -41.878906 37.027344 -40.960938 38.996094 -39.792969 L 34.847656 -30.941406 C 31.074219 -33.066406 26.953125 -34.132812 22.488281 -34.132812 C 19.832031 -34.132812 17.835938 -33.757812 16.507812 -33.015625 C 15.179688 -32.269531 14.515625 -31.3125 14.515625 -30.144531 C 14.515625 -28.816406 15.230469 -27.882812 16.667969 -27.351562 C 18.101562 -26.820312 20.386719 -26.316406 23.523438 -25.835938 C 27.035156 -25.253906 29.90625 -24.628906 32.136719 -23.964844 C 34.371094 -23.300781 36.3125 -22.089844 37.960938 -20.335938 C 39.605469 -18.582031 40.429688 -16.136719 40.429688 -13 C 40.429688 -10.339844 39.632812 -7.972656 38.039062 -5.902344 C 36.445312 -3.828125 34.117188 -2.21875 31.0625 -1.078125 C 28.003906 0.0664062 24.375 0.636719 20.175781 0.636719 Z M 20.175781 0.636719 "/></g></g></g><g fill="#000000" fill-opacity="1"><g transform="translate(558.045695, 387.010515)"><g><path d="M 33.414062 -2.074219 C 32.191406 -1.167969 30.6875 -0.492188 28.90625 -0.0390625 C 27.125 0.410156 25.253906 0.636719 23.285156 0.636719 C 18.183594 0.636719 14.234375 -0.664062 11.445312 -3.269531 C 8.652344 -5.875 7.257812 -9.703125 7.257812 -14.753906 L 7.257812 -32.375 L 0.636719 -32.375 L 0.636719 -41.945312 L 7.257812 -41.945312 L 7.257812 -52.394531 L 19.695312 -52.394531 L 19.695312 -41.945312 L 30.382812 -41.945312 L 30.382812 -32.375 L 19.695312 -32.375 L 19.695312 -14.914062 C 19.695312 -13.105469 20.164062 -11.710938 21.09375 -10.726562 C 22.023438 -9.742188 23.339844 -9.25 25.039062 -9.25 C 27.007812 -9.25 28.683594 -9.78125 30.0625 -10.84375 Z M 33.414062 -2.074219 "/></g></g></g><g fill="#000000" fill-opacity="1"><g transform="translate(592.734467, 387.010515)"><g><path d="M 47.769531 -21.292969 C 47.769531 -21.132812 47.6875 -20.015625 47.527344 -17.941406 L 15.070312 -17.941406 C 15.65625 -15.285156 17.039062 -13.183594 19.21875 -11.644531 C 21.398438 -10.101562 24.109375 -9.332031 27.351562 -9.332031 C 29.585938 -9.332031 31.566406 -9.664062 33.292969 -10.328125 C 35.023438 -10.992188 36.628906 -12.042969 38.117188 -13.476562 L 44.738281 -6.300781 C 40.695312 -1.675781 34.796875 0.636719 27.035156 0.636719 C 22.195312 0.636719 17.917969 -0.304688 14.195312 -2.191406 C 10.472656 -4.082031 7.601562 -6.699219 5.582031 -10.046875 C 3.5625 -13.398438 2.550781 -17.199219 2.550781 -21.453125 C 2.550781 -25.652344 3.546875 -29.441406 5.542969 -32.816406 C 7.535156 -36.191406 10.273438 -38.824219 13.757812 -40.710938 C 17.238281 -42.597656 21.132812 -43.542969 25.4375 -43.542969 C 29.640625 -43.542969 33.441406 -42.636719 36.84375 -40.828125 C 40.246094 -39.023438 42.917969 -36.429688 44.855469 -33.054688 C 46.796875 -29.679688 47.769531 -25.757812 47.769531 -21.292969 Z M 25.519531 -34.132812 C 22.699219 -34.132812 20.335938 -33.332031 18.421875 -31.738281 C 16.507812 -30.144531 15.335938 -27.964844 14.914062 -25.199219 L 36.046875 -25.199219 C 35.621094 -27.910156 34.449219 -30.078125 32.535156 -31.699219 C 30.621094 -33.320312 28.285156 -34.132812 25.519531 -34.132812 Z M 25.519531 -34.132812 "/></g></g></g><g fill="#000000" fill-opacity="1"><g transform="translate(643.053129, 387.010515)"><g><path d="M 17.625 -37.242188 C 19.113281 -39.316406 21.121094 -40.882812 23.644531 -41.945312 C 26.171875 -43.007812 29.082031 -43.542969 32.375 -43.542969 L 32.375 -32.058594 C 30.996094 -32.164062 30.0625 -32.21875 29.585938 -32.21875 C 26.023438 -32.21875 23.234375 -31.21875 21.210938 -29.226562 C 19.191406 -27.234375 18.183594 -24.242188 18.183594 -20.253906 L 18.183594 0 L 5.742188 0 L 5.742188 -42.902344 L 17.625 -42.902344 Z M 17.625 -37.242188 "/></g></g></g><g fill="#000000" fill-opacity="1"><g transform="translate(277.73709, 457.701935)"><g><path d="M 50 -42.902344 L 50 -7.175781 C 50 0.691406 47.953125 6.539062 43.859375 10.367188 C 39.765625 14.195312 33.785156 16.109375 25.917969 16.109375 C 21.769531 16.109375 17.835938 15.605469 14.113281 14.59375 C 10.394531 13.582031 7.308594 12.121094 4.863281 10.207031 L 9.808594 1.277344 C 11.617188 2.765625 13.902344 3.949219 16.667969 4.824219 C 19.429688 5.703125 22.195312 6.140625 24.960938 6.140625 C 29.265625 6.140625 32.441406 5.171875 34.488281 3.230469 C 36.535156 1.289062 37.558594 -1.648438 37.558594 -5.582031 L 37.558594 -7.417969 C 34.316406 -3.855469 29.796875 -2.074219 24.003906 -2.074219 C 20.070312 -2.074219 16.46875 -2.9375 13.199219 -4.664062 C 9.929688 -6.394531 7.335938 -8.824219 5.421875 -11.960938 C 3.507812 -15.097656 2.550781 -18.714844 2.550781 -22.808594 C 2.550781 -26.902344 3.507812 -30.515625 5.421875 -33.652344 C 7.335938 -36.789062 9.929688 -39.222656 13.199219 -40.949219 C 16.46875 -42.675781 20.070312 -43.542969 24.003906 -43.542969 C 30.222656 -43.542969 34.957031 -41.496094 38.199219 -37.402344 L 38.199219 -42.902344 Z M 26.476562 -12.28125 C 29.773438 -12.28125 32.46875 -13.25 34.570312 -15.191406 C 36.667969 -17.132812 37.71875 -19.671875 37.71875 -22.808594 C 37.71875 -25.945312 36.667969 -28.484375 34.570312 -30.421875 C 32.46875 -32.363281 29.773438 -33.332031 26.476562 -33.332031 C 23.179688 -33.332031 20.46875 -32.363281 18.339844 -30.421875 C 16.214844 -28.484375 15.152344 -25.945312 15.152344 -22.808594 C 15.152344 -19.671875 16.214844 -17.132812 18.339844 -15.191406 C 20.46875 -13.25 23.179688 -12.28125 26.476562 -12.28125 Z M 26.476562 -12.28125 "/></g></g></g><g fill="#000000" fill-opacity="1"><g transform="translate(333.558103, 457.701935)"><g><path d="M 48.964844 -42.902344 L 48.964844 0 L 37.160156 0 L 37.160156 -5.105469 C 35.511719 -3.242188 33.546875 -1.820312 31.261719 -0.835938 C 28.972656 0.144531 26.503906 0.636719 23.84375 0.636719 C 18.207031 0.636719 13.742188 -0.984375 10.445312 -4.226562 C 7.152344 -7.46875 5.503906 -12.28125 5.503906 -18.660156 L 5.503906 -42.902344 L 17.941406 -42.902344 L 17.941406 -20.496094 C 17.941406 -13.582031 20.839844 -10.128906 26.636719 -10.128906 C 29.613281 -10.128906 32.003906 -11.097656 33.8125 -13.039062 C 35.621094 -14.980469 36.523438 -17.863281 36.523438 -21.691406 L 36.523438 -42.902344 Z M 48.964844 -42.902344 "/></g></g></g><g fill="#000000" fill-opacity="1"><g transform="translate(388.342451, 457.701935)"><g><path d="M 5.742188 -42.902344 L 18.183594 -42.902344 L 18.183594 0 L 5.742188 0 Z M 11.960938 -48.882812 C 9.675781 -48.882812 7.816406 -49.550781 6.378906 -50.878906 C 4.945312 -52.207031 4.226562 -53.855469 4.226562 -55.820312 C 4.226562 -57.789062 4.945312 -59.4375 6.378906 -60.765625 C 7.816406 -62.09375 9.675781 -62.761719 11.960938 -62.761719 C 14.246094 -62.761719 16.109375 -62.121094 17.542969 -60.847656 C 18.980469 -59.570312 19.695312 -57.976562 19.695312 -56.0625 C 19.695312 -53.988281 18.980469 -52.273438 17.542969 -50.917969 C 16.109375 -49.5625 14.246094 -48.882812 11.960938 -48.882812 Z M 11.960938 -48.882812 "/></g></g></g><g fill="#000000" fill-opacity="1"><g transform="translate(412.345491, 457.701935)"><g><path d="M 49.441406 -59.171875 L 49.441406 0 L 37.558594 0 L 37.558594 -4.945312 C 34.476562 -1.222656 30.011719 0.636719 24.164062 0.636719 C 20.121094 0.636719 16.46875 -0.265625 13.199219 -2.074219 C 9.929688 -3.882812 7.363281 -6.460938 5.503906 -9.808594 C 3.640625 -13.15625 2.710938 -17.039062 2.710938 -21.453125 C 2.710938 -25.863281 3.640625 -29.746094 5.503906 -33.09375 C 7.363281 -36.445312 9.929688 -39.023438 13.199219 -40.828125 C 16.46875 -42.636719 20.121094 -43.542969 24.164062 -43.542969 C 29.640625 -43.542969 33.917969 -41.8125 37.003906 -38.359375 L 37.003906 -59.171875 Z M 26.316406 -9.570312 C 29.453125 -9.570312 32.058594 -10.644531 34.132812 -12.800781 C 36.203125 -14.953125 37.242188 -17.835938 37.242188 -21.453125 C 37.242188 -25.066406 36.203125 -27.949219 34.132812 -30.105469 C 32.058594 -32.257812 29.453125 -33.332031 26.316406 -33.332031 C 23.125 -33.332031 20.496094 -32.257812 18.421875 -30.105469 C 16.347656 -27.949219 15.3125 -25.066406 15.3125 -21.453125 C 15.3125 -17.835938 16.347656 -14.953125 18.421875 -12.800781 C 20.496094 -10.644531 23.125 -9.570312 26.316406 -9.570312 Z M 26.316406 -9.570312 "/></g></g></g><g fill="#000000" fill-opacity="1"><g transform="translate(467.528552, 457.701935)"><g><path d="M 47.769531 -21.292969 C 47.769531 -21.132812 47.6875 -20.015625 47.527344 -17.941406 L 15.070312 -17.941406 C 15.65625 -15.285156 17.039062 -13.183594 19.21875 -11.644531 C 21.398438 -10.101562 24.109375 -9.332031 27.351562 -9.332031 C 29.585938 -9.332031 31.566406 -9.664062 33.292969 -10.328125 C 35.023438 -10.992188 36.628906 -12.042969 38.117188 -13.476562 L 44.738281 -6.300781 C 40.695312 -1.675781 34.796875 0.636719 27.035156 0.636719 C 22.195312 0.636719 17.917969 -0.304688 14.195312 -2.191406 C 10.472656 -4.082031 7.601562 -6.699219 5.582031 -10.046875 C 3.5625 -13.398438 2.550781 -17.199219 2.550781 -21.453125 C 2.550781 -25.652344 3.546875 -29.441406 5.542969 -32.816406 C 7.535156 -36.191406 10.273438 -38.824219 13.757812 -40.710938 C 17.238281 -42.597656 21.132812 -43.542969 25.4375 -43.542969 C 29.640625 -43.542969 33.441406 -42.636719 36.84375 -40.828125 C 40.246094 -39.023438 42.917969 -36.429688 44.855469 -33.054688 C 46.796875 -29.679688 47.769531 -25.757812 47.769531 -21.292969 Z M 25.519531 -34.132812 C 22.699219 -34.132812 20.335938 -33.332031 18.421875 -31.738281 C 16.507812 -30.144531 15.335938 -27.964844 14.914062 -25.199219 L 36.046875 -25.199219 C 35.621094 -27.910156 34.449219 -30.078125 32.535156 -31.699219 C 30.621094 -33.320312 28.285156 -34.132812 25.519531 -34.132812 Z M 25.519531 -34.132812 "/></g></g></g><g fill="#000000" fill-opacity="1"><g transform="translate(517.847215, 457.701935)"><g><path d="M 20.175781 0.636719 C 16.613281 0.636719 13.132812 0.199219 9.730469 -0.679688 C 6.328125 -1.554688 3.613281 -2.65625 1.59375 -3.988281 L 5.742188 -12.917969 C 7.65625 -11.695312 9.96875 -10.699219 12.679688 -9.929688 C 15.390625 -9.15625 18.050781 -8.773438 20.652344 -8.773438 C 25.917969 -8.773438 28.550781 -10.074219 28.550781 -12.679688 C 28.550781 -13.902344 27.832031 -14.78125 26.394531 -15.3125 C 24.960938 -15.84375 22.753906 -16.292969 19.777344 -16.667969 C 16.269531 -17.199219 13.371094 -17.808594 11.085938 -18.5 C 8.796875 -19.191406 6.816406 -20.414062 5.144531 -22.167969 C 3.46875 -23.921875 2.632812 -26.421875 2.632812 -29.664062 C 2.632812 -32.375 3.414062 -34.78125 4.984375 -36.882812 C 6.550781 -38.984375 8.839844 -40.617188 11.84375 -41.785156 C 14.847656 -42.957031 18.394531 -43.542969 22.488281 -43.542969 C 25.519531 -43.542969 28.535156 -43.210938 31.539062 -42.542969 C 34.542969 -41.878906 37.027344 -40.960938 38.996094 -39.792969 L 34.847656 -30.941406 C 31.074219 -33.066406 26.953125 -34.132812 22.488281 -34.132812 C 19.832031 -34.132812 17.835938 -33.757812 16.507812 -33.015625 C 15.179688 -32.269531 14.515625 -31.3125 14.515625 -30.144531 C 14.515625 -28.816406 15.230469 -27.882812 16.667969 -27.351562 C 18.101562 -26.820312 20.386719 -26.316406 23.523438 -25.835938 C 27.035156 -25.253906 29.90625 -24.628906 32.136719 -23.964844 C 34.371094 -23.300781 36.3125 -22.089844 37.960938 -20.335938 C 39.605469 -18.582031 40.429688 -16.136719 40.429688 -13 C 40.429688 -10.339844 39.632812 -7.972656 38.039062 -5.902344 C 36.445312 -3.828125 34.117188 -2.21875 31.0625 -1.078125 C 28.003906 0.0664062 24.375 0.636719 20.175781 0.636719 Z M 20.175781 0.636719 "/></g></g></g></svg>